<svg
  xmlns="http://www.w3.org/2000/svg" viewBox="0 0 195 129" data-license="CC-BY 4.0" data-source="H5P.org">
  <g stroke="none" stroke-width="1" fill="none" fill-rule="evenodd">
    <g fill-rule="nonzero">
      <g>
        <rect fill="#D4EFFF" x="0" y="0.5" width="195" height="109"></rect>
        <rect fill="#34495E" x="0" y="109.5" width="195" height="19"></rect>
        <polygon fill="#FFFFFF" points="6 113.77 13.52 118.11 6 122.45"></polygon>
        <rect fill="#2C3E50" x="18" y="116.5" width="169" height="5"></rect>
        <rect fill="#FFFFFF" x="18" y="116.5" width="52" height="5"></rect>
        <circle fill="#2A80BB" cx="24.73" cy="24.57" r="17.1"></circle>
        <polygon fill="#3497DA" points="183.72 56.45 195 66.29 195 109.5 0 109.5 0 96.16 44.46 58.82 66.67 77.49 84.23 62.76 137.87 17.65"></polygon>
        <circle fill="#8E44AD" cx="101.53" cy="39.06" r="18.8"></circle>
        <g transform="translate(75.000000, 12.000000)" fill="#8E44AD">
          <path d="M26.53,4.78 C38.8404271,4.78 48.82,14.7595729 48.82,27.07 C48.82,39.3804271 38.8404271,49.36 26.53,49.36 C14.2195729,49.36 4.24,39.3804271 4.24,27.07 C4.25102676,14.7641433 14.2241433,4.79102676 26.53,4.78 Z M26.53,0.78 C12.0159568,0.78 0.25,12.5459568 0.25,27.06 C0.25,41.5740432 12.0159568,53.34 26.53,53.34 C41.0440432,53.34 52.81,41.5740432 52.81,27.06 C52.81,12.5459568 41.0440432,0.78 26.53,0.78 Z"></path>
        </g>
        <g transform="translate(68.000000, 5.000000)" fill="#8E44AD">
          <path d="M33.53,4.92 C49.6235776,4.92 62.67,17.9664224 62.67,34.06 C62.67,50.1535776 49.6235776,63.2 33.53,63.2 C17.4364224,63.2 4.39,50.1535776 4.39,34.06 C4.41203351,17.9755578 17.4455578,4.94203351 33.53,4.92 Z M33.53,0.92 C20.1301658,0.92 8.04976562,8.99186536 2.92187109,21.3716979 C-2.20602345,33.7515304 0.628438731,48.0013341 10.1035523,57.4764477 C19.5786659,66.9515613 33.8284696,69.7860234 46.2083021,64.6581289 C58.5881346,59.5302344 66.66,47.4498342 66.66,34.05 C66.66,15.7528062 51.8271938,0.92 33.53,0.92 Z"></path>
        </g>
        <path d="M101.53,48.52 C92.9471859,48.5161218 85.4554363,42.7029191 83.32,34.39 C81.3770054,41.9956085 84.364083,50.0078552 90.8118042,54.4852875 C97.2595254,58.9627198 105.810475,58.9627198 112.258196,54.4852875 C118.705917,50.0078552 121.692995,41.9956085 119.75,34.39 C117.613636,42.7065251 110.116538,48.5206853 101.53,48.52 Z" fill-opacity="0.5" fill="#662F84"></path>
        <g transform="translate(99.000000, 35.000000)" fill="#000000" fill-opacity="0.2">
          <path d="M38,29 L38,34.54 L7,0.28 C7,0.28 2.24,41.59 0.54,76.41 L17.4,93.5 L96,93.5 L96,85.91 L38,29 Z"></path>
        </g>
        <g transform="translate(77.000000, 33.000000)" fill="#FFFFFF">
          <path d="M67.67,37.18 C67.67,44.87 67.67,52.57 67.67,60.26 C67.7248816,66.138069 66.1908451,71.9218012 63.23,77 C61.4675842,80.0829286 59.0215394,82.7205518 56.08,84.71 C53.2401951,86.654038 49.881462,87.6992869 46.44,87.71 C43.68,87.71 40.91,87.79 38.16,87.64 C34.2381409,87.3666186 30.5253961,85.7693979 27.63,83.11 C24.2281989,80.106745 21.6529252,76.2817061 20.15,72 C19.9755808,71.5272469 19.7219582,71.0876344 19.4,70.7 C17.46,68.41 15.54,66.09 13.51,63.87 C10.6961834,60.8683137 7.32744101,58.4402383 3.59,56.72 C1.71753886,55.9121097 0.425744909,54.1578687 0.21,52.13 C-0.08,49.75 1.1,48.13 3.08,46.98 C5.18003774,45.8632674 7.56262701,45.3902278 9.93,45.62 C12.7085535,45.7574432 15.4109196,46.5746772 17.8,48 L18.2,48.19 C18.2,47.3 18.09,46.53 18.09,45.77 C18.09,34.06 18.09,19.62 18.09,7.91 C18.1007477,5.76429589 19.0588262,3.73293365 20.7076966,2.35983927 C22.3565669,0.986744891 24.5277936,0.412182752 26.64,0.79 C30.2957239,1.29417475 32.9557295,4.51486775 32.76,8.2 C32.76,11.31 32.76,17.2 32.76,20.28 C32.76,21.28 32.76,22.35 32.76,23.49 C34.7363675,22.0803459 37.2761737,21.7235499 39.5644392,22.5341018 C41.8527046,23.3446536 43.6016242,25.2206065 44.25,27.56 C46.2402971,26.0188379 48.8782006,25.5967733 51.25,26.44 C53.685468,27.2404638 55.4885343,29.3082356 55.95,31.83 L56.45,31.52 C58.1141381,30.4444839 60.1400868,30.0812777 62.0742067,30.5117087 C64.0083266,30.9421396 65.6890361,32.1302483 66.74,33.81 C67.3538433,34.8265067 67.6756273,35.9925415 67.67,37.18 Z"></path>
        </g>
        <path d="M56.2,46.5 L34.37,46.5 C30.2356431,46.6583941 26.5718678,43.8570362 25.641001,39.8257234 C24.7101342,35.7944106 26.7747589,31.6703131 30.56,30 C30.56,29.72 30.56,29.52 30.56,29.24 C30.6224968,24.3741214 34.0913618,20.2200792 38.8681015,19.2908654 C43.6448412,18.3616516 48.4179788,20.9123863 50.3,25.4 C51.2221909,24.5964982 52.4069187,24.1588961 53.63,24.17 C56.4664613,24.1755024 58.7644976,26.4735387 58.77,29.31 C58.7716457,30.2933986 58.4866978,31.2559666 57.95,32.08 C61.4010039,32.6962626 63.9227312,35.6845095 63.95,39.19 C63.9334578,41.2009448 63.0969947,43.1180491 61.6340723,44.4979153 C60.1711499,45.8777814 58.2084804,46.6008912 56.2,46.5 Z" fill="#FFFFFF"></path>
        <g transform="translate(16.000000, 19.000000)" fill="#FFFFFF">
          <path d="M30.86,27.5 L9,27.5 C4.87178107,27.6424689 1.22276603,24.8363967 0.300361186,20.8100263 C-0.622043658,16.783656 1.44147144,12.6688951 5.22,11 C5.22,10.72 5.22,10.52 5.22,10.24 C5.23769016,5.33664984 8.71918945,1.12975221 13.5327032,0.195278359 C18.3462169,-0.739195489 23.1489128,1.85944584 25,6.4 C25.9221909,5.59649821 27.1069187,5.15889606 28.33,5.17 C31.1664613,5.17550237 33.4644976,7.47353867 33.47,10.31 C33.4716457,11.2933986 33.1866978,12.2559666 32.65,13.08 C36.1010039,13.6962626 38.6227312,16.6845095 38.65,20.19 C38.6339766,22.2082698 37.7920464,24.1319124 36.3202453,25.5130248 C34.8484443,26.8941372 32.8752127,27.6121932 30.86,27.5 Z"></path>
        </g>
        <g transform="translate(7.000000, 19.000000)" fill="#FFFFFF">
          <path d="M30.82,27.5 L9,27.5 C4.86564306,27.6583941 1.20186776,24.8570362 0.271000982,20.8257234 C-0.659865796,16.7944106 1.40475892,12.6703131 5.19,11 C5.19,10.72 5.19,10.52 5.19,10.24 C5.2171129,5.34036669 8.70162417,1.14223953 13.5124392,0.213153912 C18.3232543,-0.715931707 23.1204055,1.88280462 24.97,6.42 C25.8921909,5.61649821 27.0769187,5.17889606 28.3,5.19 C31.1364613,5.19550237 33.4344976,7.49353867 33.44,10.33 C33.4416457,11.3133986 33.1566978,12.2759666 32.62,13.1 C36.0710039,13.7162626 38.5927312,16.7045095 38.62,20.21 C38.5986807,22.2266175 37.7530128,24.146662 36.2796142,25.523723 C34.8062156,26.900784 32.8334552,27.614886 30.82,27.5 Z"></path>
        </g>
      </g>
    </g>
  </g>
</svg>
