<?xml version="1.0" encoding="UTF-8" standalone="no"?>
<svg width="365px" height="78px" viewBox="0 0 365 78" version="1.1" xmlns="http://www.w3.org/2000/svg" xmlns:xlink="http://www.w3.org/1999/xlink">
    <!-- Generator: Sketch 50 (54983) - http://www.bohemiancoding.com/sketch -->
    <title>Group 3</title>
    <desc>Created with Sketch.</desc>
    <defs></defs>
    <g id="fagforside" stroke="none" stroke-width="1" fill="none" fill-rule="evenodd">
        <g id="illustrasjon-test-mobil" transform="translate(0.000000, -199.000000)" stroke="#FFFFFF" stroke-width="0.5">
            <g id="Group-3" transform="translate(-591.000000, 199.000000)">
                <g id="hus1" transform="translate(887.932039, 21.834951)">
                    <g id="Layer_9" transform="translate(3.309797, 0.000000)">
                        <path d="M1.48940865,13.3948576 C1.48940865,13.3948576 1.82038835,10.7489598 2.15136805,10.0874853 C1.15842895,9.75674811 0.16548985,9.42601088 0.16548985,9.42601088 C0.16548985,9.42601088 6.12312445,5.12642697 6.78508385,4.46495252 C7.44704325,3.80347808 10.2934687,1.6206124 10.7568402,1.15758028 C11.4187996,0.496105836 11.7497793,0.165368612 11.7497793,0.165368612 C11.7497793,0.165368612 15.3243601,3.73733063 16.0525154,4.46495252 C17.0454545,5.4571642 22.3411297,9.75674811 22.3411297,9.75674811 L20.3552515,10.0874853 L21.0172109,13.0641203" id="Shape"></path>
                    </g>
                    <g id="Layer_10" transform="translate(8.274492, 10.252854)">
                        <path d="M0.16548985,4.46495252 C-0.16548985,4.1342153 0.49646955,0.496105836 0.49646955,0.165368612 C0.49646955,-0.165368612 3.14430715,0.165368612 3.14430715,0.165368612 L3.07811121,3.04278246" id="Shape"></path>
                    </g>
                    <g id="Layer_11" transform="translate(16.879965, 9.922117)">
                        <path d="M0.39717564,3.37351968 C0.49646955,3.14200363 -0.16548985,0.165368612 0.16548985,0.165368612 C0.49646955,0.165368612 2.81332745,0.165368612 2.81332745,0.165368612 L3.14430715,3.24122479" id="Shape"></path>
                    </g>
                    <g id="Layer_12" transform="translate(4.964695, 24.805292)">
                        <path d="M0.16548985,0.165368612 C-0.16548985,0.496105836 0.49646955,3.47274085 0.49646955,3.47274085 L2.81332745,3.47274085 L2.81332745,0.82684306 L0.16548985,0.165368612 Z" id="Shape"></path>
                    </g>
                    <g id="Layer_13" transform="translate(13.239188, 24.143817)">
                        <path d="M0.16548985,0.82684306 L0.49646955,3.80347808 L2.48234775,3.80347808 L2.48234775,0.496105836 C2.48234775,0.496105836 0.82744925,0.165368612 0.49646955,0.165368612 C0.16548985,0.165368612 0.16548985,0.82684306 0.16548985,0.82684306 Z" id="Shape"></path>
                    </g>
                    <g id="Layer_14" transform="translate(21.844660, 24.143817)">
                        <path d="M0.16548985,0.165368612 C0.16548985,0.496105836 0.49646955,3.47274085 0.49646955,3.47274085 L2.81332745,3.47274085 C2.81332745,3.47274085 3.14430715,2.8112664 3.14430715,2.14979196 C3.14430715,1.48831751 2.48234775,0.165368612 2.48234775,0.165368612 L0.16548985,0.165368612 Z" id="Shape"></path>
                    </g>
                    <g id="Layer_8" transform="translate(0.000000, 12.568015)">
                        <path d="M1.6548985,17.1983356 C1.6548985,17.1983356 1.6548985,9.26064227 1.3239188,9.26064227 C0.9929391,9.26064227 0.3309797,8.92990505 0.3309797,8.92990505 C0.3309797,8.92990505 -6.85562718e-14,8.2684306 0.3309797,7.93769337 C0.6619594,7.60695615 1.3239188,7.60695615 1.3239188,7.60695615 L0.9929391,2.97663502 L1.9858782,2.97663502 C1.9858782,2.97663502 2.3168579,1.3229489 2.3168579,0.992211672 C2.3168579,0.661474448 6.78508385,0.727621893 7.11606355,0.82684306 C7.11606355,1.15758028 7.11606355,2.14979196 7.11606355,2.48052918 C7.77802295,2.48052918 9.10194175,2.48052918 9.10194175,2.48052918 L9.10194175,0.82684306 C9.10194175,0.82684306 12.080759,0.82684306 12.9082083,0.661474448 L13.0736981,2.48052918 L15.7215357,2.48052918 L15.7215357,0.82684306 L20.3552515,0.82684306 L20.6862312,2.48052918 L22.6721094,2.48052918 L22.6721094,0.82684306 C22.6721094,0.82684306 27.4713151,3.77475828e-15 27.4713151,0.330737224 C27.4713151,0.661474448 27.8022948,4.63032114 27.8022948,5.29179558 C27.8022948,5.95327003 28.1332745,7.60695615 28.1332745,7.60695615 L29.1262136,8.2684306 L28.7952339,9.26064227 L28.1332745,9.59137949 L27.8022948,16.8675984" id="Shape"></path>
                    </g>
                    <g id="Layer_15" transform="translate(0.992939, 19.513496)">
                        <path d="M0.16548985,0.496105836 C0.16548985,0.496105836 4.79920565,0.82684306 5.13018535,0.82684306 C5.46116505,0.82684306 9.10194175,0.496105836 10.0948808,0.496105836 C11.0878199,0.496105836 17.3764342,0.165368612 17.3764342,0.165368612 C17.3764342,0.165368612 23.9960282,0.165368612 24.6579876,0.496105836 C25.319947,0.82684306 26.3128861,0.165368612 26.9748455,0.496105836" id="Shape"></path>
                    </g>
                    <g id="Layer_16" transform="translate(0.992939, 21.497920)">
                        <path d="M0.16548985,0.165368612 C0.16548985,0.165368612 5.46116505,0.165368612 6.78508385,0.165368612 C8.10900265,0.165368612 15.0595763,0.165368612 15.0595763,0.165368612 C15.0595763,0.165368612 18.700353,0.506027953 20.0242718,0.506027953 C21.3481906,0.506027953 27.1403354,0.506027953 27.1403354,0.506027953" id="Shape"></path>
                    </g>
                </g>
                <g id="Layer_17" transform="translate(915.601942, 0.961165)">
                    <g id="Layer_18" transform="translate(0.000000, 34.466019)">
                        <path d="M0.165857605,11.7648432 L2.15614887,11.4334391 L2.81957929,14.7474795 C2.81957929,14.7474795 3.48300971,15.0788835 3.48300971,14.7474795 C3.48300971,14.4160754 3.1512945,10.7706311 3.1512945,10.7706311 L7.13187702,10.107823 L7.79530744,13.0904593 C7.79530744,13.0904593 8.12702265,13.4218633 8.45873786,13.0904593 C8.79045307,12.7590553 8.12702265,9.44501494 8.12702265,9.44501494 L11.77589,8.45080284 C11.77589,8.45080284 11.77589,12.0962472 12.1076052,12.4276512 C12.4393204,12.7590553 13.7661812,11.7648432 13.7661812,11.7648432 C13.7661812,11.7648432 13.434466,10.107823 13.434466,9.44501494 C13.434466,8.78220687 13.1027508,8.11939881 13.1027508,8.11939881 L15.4247573,7.45659074 C15.4247573,7.45659074 15.7564725,8.78220687 16.0881877,9.44501494 C16.4199029,10.107823 16.7516181,11.4334391 16.7516181,11.4334391 L17.7467638,11.1020351 C17.7467638,11.1020351 17.4150485,9.77641897 17.4150485,9.44501494 C17.4150485,9.1136109 17.0833333,7.45659074 17.0833333,7.12518671 C17.0833333,6.79378267 20.4004854,6.46237864 20.4004854,6.46237864 L20.7322006,9.77641897 L22.0590615,9.77641897 L21.7273463,6.46237864 L25.0444984,5.13676251 C25.0444984,5.13676251 25.3762136,8.11939881 25.7079288,8.45080284 C26.039644,8.78220687 27.0347896,8.11939881 27.0347896,8.11939881 C27.0347896,8.11939881 26.7030744,6.79378267 26.7030744,6.46237864 C26.7030744,6.13097461 26.7030744,4.80535848 26.7030744,4.80535848 L29.3567961,3.81114638 L30.0202265,7.78799477 L31.0153722,7.45659074 L31.0153722,3.47974235 L33.6690939,2.48553025 L34.0008091,6.13097461 L35.3276699,5.13676251 L35.3276699,1.82272218 L36.6545307,0.828510082 L36.986246,3.81114638 L37.3179612,3.47974235 L37.3179612,0.497106049 L38.9765372,0.165702016 C38.9765372,0.165702016 39.6399676,6.46237864 39.6399676,7.12518671 C39.6399676,7.78799477 38.644822,11.1020351 38.9765372,12.7590553 C39.3082524,14.4160754 39.3082524,22.0383682 39.3082524,22.0383682 C39.3082524,22.0383682 33.6690939,23.6953883 32.342233,24.0267924 C31.0153722,24.3581964 24.381068,27.3408327 19.737055,28.0036408 C15.0930421,28.6664488 12.1076052,29.992065 12.1076052,29.992065 L4.47815534,32.6432972 L0.497572816,34.3003174" id="Shape"></path>
                    </g>
                    <g id="Layer_19" transform="translate(3.317152, 14.250373)">
                        <path d="M34.6642395,20.381348 L34.3325243,18.3929238 L33.0056634,17.7301158 L32.6739482,21.0441561 L31.6788026,20.7127521 L31.3470874,17.7301158 L29.3567961,17.0673077 C29.3567961,17.0673077 29.6885113,19.3871359 29.6885113,19.71854 C29.6885113,20.049944 27.3665049,19.71854 27.3665049,19.71854 L28.0299353,16.4044996 L25.0444984,15.0788835 L25.0444984,18.3929238 L23.3859223,18.0615198 L23.0542071,15.0788835 L21.3956311,14.7474795 L21.0639159,17.7301158 L20.0687702,17.0673077 L20.0687702,14.0846714 L17.0833333,13.7532674 L16.7516181,16.7359037 C16.7516181,16.7359037 14.4296117,16.7359037 14.7613269,16.4044996 C15.0930421,16.0730956 15.0930421,13.0904593 15.0930421,13.0904593 L13.434466,12.7590553 L12.7710356,16.0730956 L11.1124595,15.4102875 L11.1124595,11.7648432 L9.12216828,11.1020351 L8.45873786,14.4160754 L6.80016181,13.7532674 L7.46359223,11.1020351 L4.80987055,10.439227 L4.80987055,13.4218633 C4.80987055,13.4218633 2.81957929,13.4218633 3.1512945,12.7590553 C3.48300971,12.0962472 3.1512945,10.107823 3.1512945,10.107823 L0.165857605,9.1136109 C0.165857605,9.1136109 0.165857605,10.107823 0.165857605,10.439227 C0.165857605,10.7706311 0.165857605,11.4334391 0.165857605,11.4334391 L0.165857605,7.78799477 L0.829288026,7.45659074 L1.16100324,8.45080284 C1.16100324,8.45080284 1.82443366,8.45080284 1.82443366,8.11939881 C1.82443366,7.78799477 1.49271845,5.46816654 1.49271845,5.46816654 L3.1512945,5.13676251 L3.48300971,6.79378267 L4.80987055,6.46237864 L4.14644013,4.47395444 L5.14158576,4.47395444 C5.14158576,4.47395444 5.14158576,6.46237864 5.47330097,6.46237864 C5.80501618,6.46237864 5.80501618,6.46237864 6.13673139,6.13097461 C6.4684466,5.79957058 6.4684466,3.81114638 6.4684466,3.81114638 L7.13187702,3.81114638 L7.79530744,5.46816654 L8.45873786,5.46816654 L8.45873786,2.81693428 L9.78559871,2.48553025 L10.1173139,4.80535848 L11.4441748,4.80535848 L11.4441748,2.15412621 L12.4393204,1.49131815 L12.7710356,4.14255041 C12.7710356,4.14255041 13.434466,4.14255041 13.7661812,3.81114638 C14.0978964,3.47974235 13.7661812,1.49131815 13.7661812,1.49131815 L14.7613269,1.15991412 L15.4247573,3.47974235 L16.4199029,3.14833831 L16.4199029,0.828510082 L18.4101942,0.165702016" id="Shape"></path>
                    </g>
                    <g id="Layer_20" transform="translate(3.317152, 25.518111)">
                        <path d="M0.165857605,0.165702016 C0.165857605,0.165702016 0.165857605,2.15412621 0.497572816,4.80535848 C0.829288026,7.45659074 0.829288026,10.439227 0.829288026,10.439227 C0.829288026,10.439227 5.14158576,12.0962472 6.4684466,12.4276512 C7.79530744,12.7590553 10.1173139,13.0904593 10.1173139,13.0904593 L16.4199029,15.4102875" id="Shape"></path>
                    </g>
                    <g id="Layer_21" transform="translate(17.580906, 0.000000)">
                        <path d="M4.14644013,14.4160754 L4.14644013,13.0904593 L3.48300971,13.0904593 L3.48300971,11.7648432 L4.47815534,11.7648432 L4.14644013,8.11939881 L4.47815534,8.11939881 L5.14158576,8.11939881 L6.13673139,8.11939881 C6.13673139,8.11939881 6.13673139,6.79378267 6.13673139,6.13097461 C4.71035599,5.79957058 3.64886731,5.46816654 4.14644013,5.46816654 C4.14644013,5.46816654 7.46359223,3.47974235 8.12702265,3.14833831 C8.79045307,2.81693428 11.1124595,0.165702016 11.1124595,0.165702016 C11.1124595,0.165702016 15.4247573,4.14255041 16.4199029,4.80535848 C17.4150485,5.46816654 18.7419094,6.13097461 18.7419094,6.13097461 L17.4150485,6.13097461 L17.4150485,7.78799477 L18.7419094,7.78799477 L19.0736246,11.7648432 L20.0687702,11.7648432 C20.0687702,12.0962472 20.0687702,11.7648432 20.0687702,12.7590553 C20.0687702,13.2230209 19.4053398,13.0904593 19.4053398,13.0904593 L19.4053398,18.7243279 C19.4053398,18.7243279 19.0736246,21.7069642 19.737055,23.0325803 C20.4004854,24.3581964 19.737055,27.0094287 19.737055,27.0094287 C19.737055,27.0094287 1.49271845,27.0094287 1.16100324,27.0094287 C0.829288026,27.0094287 0.165857605,27.0094287 0.165857605,27.0094287" id="Shape"></path>
                    </g>
                    <g id="Layer_22" transform="translate(25.542071, 5.633869)">
                        <path d="M0.165857605,0.165702016 L0.165857605,2.15412621 C0.165857605,2.15412621 1.16100324,2.48553025 1.16100324,2.15412621 C1.16100324,1.82272218 1.16100324,0.165702016 1.16100324,0.165702016 L0.165857605,0.165702016 Z" id="Shape"></path>
                    </g>
                    <g id="Layer_23" transform="translate(30.849515, 5.633869)">
                        <polygon id="Shape" points="0.165857605 0.165702016 0.165857605 1.82272218 1.82443366 2.15412621 1.49271845 0.165702016"></polygon>
                    </g>
                </g>
                <g id="Layer_25" transform="translate(888.417476, 51.446602)">
                    <path d="M26.9748455,0.167117619 C26.9748455,0.167117619 28.629744,0.167117619 28.9607237,0.501352857 C29.2917034,0.835588095 28.9607237,2.17252905 28.9607237,2.17252905 C28.9607237,2.17252905 27.9677846,2.50676428 27.6368049,2.17252905 C27.3058252,1.83829381 27.9677846,12.1995862 27.6368049,13.2022919 C27.3058252,14.2049976 27.3058252,16.5446443 27.3058252,16.5446443 L27.3058252,19.2185262 C27.3058252,19.2185262 26.3128861,18.2158205 25.319947,18.5500557 C24.3270079,18.8842909 18.0383936,19.5527614 17.7074139,19.8869967 C17.3764342,20.2212319 16.3834951,19.8869967 16.3834951,19.8869967 C16.3834951,19.8869967 11.7497793,20.5554671 10.7568402,20.2212319 C9.76390115,19.8869967 5.79214475,19.8869967 5.79214475,19.8869967 L1.48940865,19.8869967 C1.48940865,19.8869967 1.82038835,16.8788795 1.82038835,16.210409 C1.82038835,15.5419386 1.48940865,8.18876333 1.48940865,8.18876333 L1.48940865,1.83829381 L0.16548985,1.83829381 L0.16548985,0.167117619 C0.16548985,0.167117619 5.06398941,0.167117619 5.79214475,0.167117619 C6.78508385,0.167117619 11.0878199,0.167117619 11.7497793,0.167117619 C12.4117387,0.167117619 16.0525154,0.167117619 16.0525154,0.167117619 C16.0525154,0.167117619 18.700353,0.167117619 19.0313327,0.167117619 C19.3623124,0.167117619 22.3411297,0.167117619 22.6721094,0.167117619 C23.0030891,0.167117619 24.8565755,0.167117619 25.319947,0.167117619 C25.6509267,0.167117619 26.9748455,0.167117619 26.9748455,0.167117619 Z" id="Shape"></path>
                </g>
                <g id="Layer_26" transform="translate(889.388350, 52.902913)">
                    <path d="M0.164808822,0.121359223 L5.43869112,0.371359223 C5.43869112,0.371359223 13.0198969,0.121359223 14.3383675,0.121359223 C15.0635263,0.121359223 21.260338,0.371359223 21.9195733,0.371359223 C22.5788086,0.371359223 26.5342203,0.371359223 26.5342203,0.371359223" id="Shape"></path>
                </g>
                <g id="Layer_28" transform="translate(822.956323, 48.963712)">
                    <path d="M66.2315039,0.334235238 C65.235042,0.100270571 61.9135022,0.668470476 61.9135022,0.668470476 L61.9467176,3.81028171 C61.9467176,3.81028171 59.6216397,4.37848162 59.2894857,3.84370524 C58.9573317,3.30892886 58.9241163,0.96928219 58.9241163,0.96928219 L54.6061146,1.30351743 L54.971484,4.17794047 L50.6534822,4.51217571 L50.9524208,1.37036448 L46.302265,1.43721152 L46.6676344,4.84641095 L43.0139406,5.14722266 L42.6485712,2.00541143 L39.9913394,1.77144676 L39.6924008,5.44803438 L35.374399,5.24749324 L35.3411836,1.83829381 L31.6874899,1.87171733 L31.0563973,5.81569314 L26.4062415,6.14992838 L27.3362727,1.93856438 L22.021809,2.00541143 L22.3871784,5.94938724 L18.4013306,6.01623428 C18.4013306,6.01623428 18.7002692,2.07225848 18.0359612,2.07225848 C17.3716532,2.07225848 14.7144214,2.105682 14.7144214,2.105682 L15.4119447,6.04965781 C15.4119447,6.04965781 13.0868669,6.08308133 13.0868669,5.81569314 C13.0868669,5.54830495 12.3893435,1.87171733 12.3893435,1.87171733 L7.73918777,1.93856438 L8.80208051,6.91866943 L5.14838672,6.71812828 L6.07841786,2.23937609 L0.0996461945,2.30622314 L0.797169556,4.47875219" id="Shape"></path>
                </g>
                <g id="Layer_31" transform="translate(785.422923, 50.969123)">
                    <path d="M38.3637849,2.17252905 L38.3637849,4.51217571 C38.3637849,4.51217571 36.370861,4.84641095 36.370861,4.51217571 C36.370861,4.17794047 36.370861,0.167117619 36.370861,0.167117619 L32.7171672,0.167117619 L32.3850132,4.51217571 L30.7242433,4.51217571 L30.7242433,0.167117619 L26.0740876,0.167117619 L25.7419336,4.51217571 L24.7454716,4.51217571 L24.4133177,0.501352857 L21.0917778,0.167117619 L21.0917778,4.51217571 L19.4310079,4.51217571 L19.4310079,0.167117619 L16.1094681,0.167117619 L16.1094681,4.51217571 L14.4486982,4.51217571 L14.4486982,0.501352857 L10.7950044,0.501352857 L10.7950044,4.51217571 L8.80208051,4.51217571 L8.13777255,0.167117619 L4.48407875,0.167117619 L4.15192477,4.17794047 L2.49115486,4.17794047 L2.82330884,0.167117619 L0.166076991,0.167117619" id="Shape"></path>
                </g>
                <g id="Layer_32" transform="translate(713.013355, 49.297947)">
                    <path d="M72.575645,1.83829381 L72.243491,5.84911666 L70.9148751,5.84911666 L70.5827211,1.83829381 L67.5933353,1.83829381 L67.5933353,5.84911666 L65.9325654,6.1833519 C65.9325654,6.1833519 66.2647193,1.83829381 66.2647193,1.50405857 C66.2647193,1.16982333 62.6110255,1.50405857 62.6110255,1.50405857 L62.9431795,5.51488143 L60.9502556,5.84911666 L61.2824096,1.83829381 L57.6287158,1.50405857 L57.2965618,5.51488143 L55.6357919,5.51488143 L54.971484,1.83829381 L50.9856362,1.50405857 L51.3177902,5.18064619 L49.6570203,5.18064619 L49.9891742,0.501352857 L46.0033265,0.501352857 L46.0033265,5.51488143 L43.0139406,5.18064619 L44.0104026,1.16982333 C44.0104026,1.16982333 41.3531707,0.501352857 41.0210167,0.835588095 C40.6888628,1.16982333 40.3567088,5.18064619 40.3567088,5.18064619 L38.6959389,5.18064619 C38.6959389,5.18064619 38.6959389,1.16982333 38.3637849,1.16982333 C38.0316309,1.16982333 35.0422451,1.16982333 35.0422451,1.16982333 L35.0422451,5.18064619 C35.0422451,5.18064619 32.7171672,5.51488143 33.0493212,5.18064619 C33.3814752,4.84641095 33.7136291,1.16982333 33.3814752,1.16982333 C33.0493212,1.16982333 28.3991654,1.16982333 28.3991654,1.16982333 L28.3991654,5.51488143 L26.7383955,5.51488143 L26.7383955,0.835588095 L23.7490097,0.835588095 L23.4168557,5.51488143 L20.7596239,5.18064619 L21.7560858,0.501352857 L18.434546,0.501352857 L18.102392,5.51488143 L16.4416221,5.18064619 L17.1059301,0.501352857 C17.1059301,0.501352857 13.1200823,0.501352857 13.4522363,0.501352857 C13.7843902,0.501352857 13.4522363,5.18064619 13.4522363,5.18064619 C13.4522363,5.18064619 10.7950044,5.84911666 11.1271584,5.51488143 C11.4593124,5.18064619 11.7914663,0.501352857 11.7914663,0.501352857 L7.80561857,0.167117619 L7.80561857,5.51488143 L5.81269468,5.18064619 C5.81269468,5.18064619 5.81269468,1.50405857 5.81269468,1.16982333 C5.81269468,0.835588095 1.49469292,0.501352857 1.49469292,0.501352857 L1.49469292,5.18064619 L0.166076991,5.18064619" id="Shape"></path>
                </g>
                <g id="Layer_33" transform="translate(480.837722, 50.300653)">
                    <path d="M232.34171,4.17794047 L232.009556,0.167117619 L228.023708,0.167117619 L228.355862,4.17794047 L226.695092,4.51217571 C226.695092,4.51217571 226.362939,0.835588095 226.695092,0.501352857 C227.027246,0.167117619 224.037861,0.501352857 224.037861,0.501352857 L224.037861,4.51217571 L222.377091,4.51217571 L222.044937,0.167117619 L219.055551,0.501352857 L219.055551,4.51217571 L218.059089,4.51217571 L217.062627,0.167117619 L213.408933,0.501352857 L213.741087,4.51217571 L212.412471,4.51217571 L212.080317,0.501352857 L208.09447,0.501352857 L208.09447,4.51217571 L206.765854,4.51217571 L207.098008,0.501352857 L203.11216,0.501352857 L203.11216,4.51217571 L202.115698,4.84641095 L201.783544,0.501352857 L198.794158,0.835588095 L199.126312,4.84641095 L197.465542,4.84641095 L197.465542,0.835588095 L193.479694,0.835588095 L193.811848,4.84641095 L192.151078,4.84641095 L192.483232,0.835588095 L188.497385,1.16982333 L189.161693,5.18064619 L187.500923,5.18064619 L187.168769,1.16982333 L183.515075,1.16982333 L183.847229,5.18064619 L182.186459,5.18064619 L182.186459,1.50405857 L177.868457,1.83829381 L177.868457,5.51488143 L176.539841,5.84911666 L176.207687,1.83829381 L171.557532,1.83829381 L171.557532,5.84911666 C171.557532,5.84911666 169.564608,5.84911666 169.896762,5.84911666 C170.228916,5.84911666 170.228916,1.83829381 170.228916,1.83829381 L165.246606,2.17252905 L165.57876,5.84911666 L164.250144,6.1833519 L163.585836,2.17252905 L159.599988,2.17252905 L159.932142,6.51758714 L158.603526,6.51758714 L158.603526,2.50676428 L153.953371,2.50676428 L154.285524,6.51758714 L152.956909,6.85182238 L152.956909,2.50676428 L149.635369,2.50676428 L149.635369,6.85182238 L147.642445,6.85182238 L148.306753,2.84099952 L143.656597,2.84099952 L143.988751,6.85182238 L142.992289,7.18605762 L142.660135,3.17523476 L138.674287,3.17523476 L139.338595,7.18605762 L137.677825,7.18605762 L137.345671,2.84099952 L134.356286,3.17523476 L135.020594,6.85182238 C135.020594,6.85182238 133.02767,7.52029285 133.359824,7.18605762 C133.691978,6.85182238 133.359824,3.84370524 133.359824,3.84370524 C133.359824,3.84370524 130.702592,4.17794047 130.702592,3.84370524 C130.702592,3.50947 130.702592,7.52029285 130.702592,7.52029285 L129.041822,7.52029285 L128.377514,3.84370524 L125.055974,4.17794047 L125.055974,7.85452809 L123.727358,7.85452809 L123.395204,4.17794047 L119.74151,3.84370524 L120.073664,7.85452809 L118.412894,8.18876333 L118.08074,4.17794047 L114.094893,4.17794047 L114.094893,8.18876333 L112.766277,8.52299857 L112.434123,4.17794047 L107.783967,4.84641095 L107.783967,8.52299857 L106.455351,8.52299857 L106.455351,4.84641095 L103.133811,4.84641095 L103.798119,8.52299857 L102.801657,8.85723381 L101.140887,4.84641095 L96.8228857,4.84641095 L97.1550396,9.19146904 L95.1621157,8.85723381 L95.4942697,5.18064619 L90.179806,5.18064619 L90.51196,9.19146904 L88.8511901,9.52570428 L88.8511901,5.51488143 L85.1974963,5.51488143 L85.5296503,9.85993952 L83.8688804,9.85993952 L83.5367264,5.84911666 L80.2151866,5.84911666 L79.8830326,9.85993952 L78.2222627,10.1941748 L77.8901087,6.1833519 L73.239953,6.1833519 L73.5721069,10.52841 L71.911337,10.1941748 L71.2470291,6.1833519 L66.9290273,6.1833519 L66.9290273,10.52841 L65.2682574,10.52841 L65.2682574,6.51758714 L60.9502556,6.85182238 L61.2824096,10.8626452 L60.2859477,10.8626452 L59.2894857,6.51758714 L54.971484,6.85182238 L54.971484,11.1968805 L53.642868,10.8626452 L53.642868,6.85182238 L49.3248663,6.85182238 L49.3248663,11.1968805 L47.6640964,11.1968805 L47.9962504,6.85182238 L43.3460946,6.85182238 L43.3460946,11.1968805 L42.3496327,11.1968805 L41.6853247,7.18605762 L38.0316309,7.52029285 L37.6994769,11.1968805 L36.370861,11.1968805 L36.038707,7.52029285 L32.0528592,7.52029285 L31.7207052,11.1968805 L30.7242433,11.1968805 L30.3920893,7.52029285 L27.4027035,7.85452809 L27.0705495,11.8653509 L25.4097796,11.8653509 L25.4097796,7.85452809 L22.0882398,7.85452809 L22.0882398,11.8653509 L20.7596239,11.8653509 C20.7596239,11.8653509 20.4274699,7.85452809 20.0953159,7.85452809 C19.7631619,7.85452809 16.4416221,7.85452809 16.4416221,7.85452809 L16.4416221,11.8653509 L15.1130062,12.1995862 L14.4486982,7.85452809 L10.4628504,7.85452809 L10.4628504,11.8653509 L9.1342345,11.8653509 L9.1342345,7.85452809 L5.14838672,7.85452809 L5.14838672,12.1995862 L3.48761681,11.8653509 L3.81977079,7.85452809 L0.166076991,7.85452809 L0.498230972,11.8653509" id="Shape"></path>
                </g>
                <g id="Layer_36" transform="translate(471.427184, 70.864078)">
                    <path d="M419.251304,0.166435506 C419.251304,0.166435506 373.720247,4.16088766 296.616559,2.49653259 C238.38998,1.23162275 146.064961,4.16088766 0.166171742,11.4840499" id="Shape"></path>
                </g>
            </g>
        </g>
    </g>
</svg>